<svg width="78" height="26" viewBox="0 0 78 26" fill="none" xmlns="http://www.w3.org/2000/svg">
<path d="M1.27841 15V3.36364H8.49432V4.875H3.03409V8.42045H7.97727V9.92614H3.03409V15H1.27841ZM10.517 15V6.27273H12.2159V15H10.517ZM11.375 4.92614C11.0795 4.92614 10.8258 4.82765 10.6136 4.63068C10.4053 4.42992 10.3011 4.19129 10.3011 3.91477C10.3011 3.63447 10.4053 3.39583 10.6136 3.19886C10.8258 2.99811 11.0795 2.89773 11.375 2.89773C11.6705 2.89773 11.9223 2.99811 12.1307 3.19886C12.3428 3.39583 12.4489 3.63447 12.4489 3.91477C12.4489 4.19129 12.3428 4.42992 12.1307 4.63068C11.9223 4.82765 11.6705 4.92614 11.375 4.92614ZM16.2003 3.36364V15H14.5014V3.36364H16.2003ZM18.4858 15V6.27273H20.1165V7.69318H20.2244C20.4063 7.21212 20.7036 6.83712 21.1165 6.56818C21.5294 6.29545 22.0237 6.15909 22.5994 6.15909C23.1828 6.15909 23.6714 6.29545 24.0653 6.56818C24.4631 6.84091 24.7566 7.21591 24.946 7.69318H25.0369C25.2453 7.22727 25.5767 6.85606 26.0312 6.57955C26.4858 6.29924 27.0275 6.15909 27.6562 6.15909C28.4479 6.15909 29.0938 6.4072 29.5938 6.90341C30.0975 7.39962 30.3494 8.14773 30.3494 9.14773V15H28.6506V9.30682C28.6506 8.71591 28.4896 8.28788 28.1676 8.02273C27.8456 7.75758 27.4612 7.625 27.0142 7.625C26.4612 7.625 26.0312 7.79545 25.7244 8.13636C25.4176 8.47348 25.2642 8.9072 25.2642 9.4375V15H23.571V9.19886C23.571 8.72538 23.4233 8.3447 23.1278 8.05682C22.8324 7.76894 22.4479 7.625 21.9744 7.625C21.6525 7.625 21.3551 7.71023 21.0824 7.88068C20.8134 8.04735 20.5956 8.2803 20.429 8.57955C20.2661 8.87879 20.1847 9.22538 20.1847 9.61932V15H18.4858ZM32.6264 15V6.27273H34.3253V15H32.6264ZM33.4844 4.92614C33.1889 4.92614 32.9351 4.82765 32.723 4.63068C32.5147 4.42992 32.4105 4.19129 32.4105 3.91477C32.4105 3.63447 32.5147 3.39583 32.723 3.19886C32.9351 2.99811 33.1889 2.89773 33.4844 2.89773C33.7798 2.89773 34.0317 2.99811 34.2401 3.19886C34.4522 3.39583 34.5582 3.63447 34.5582 3.91477C34.5582 4.19129 34.4522 4.42992 34.2401 4.63068C34.0317 4.82765 33.7798 4.92614 33.4844 4.92614ZM43.2415 6.27273C43.1733 5.69697 42.8968 5.25 42.4119 4.93182C41.9271 4.61364 41.3324 4.45455 40.6278 4.45455C40.1127 4.45455 39.6619 4.53788 39.2756 4.70455C38.893 4.87121 38.5938 5.10038 38.3778 5.39205C38.1657 5.68371 38.0597 6.01515 38.0597 6.38636C38.0597 6.69697 38.1335 6.96401 38.2812 7.1875C38.4328 7.4072 38.6259 7.59091 38.8608 7.73864C39.0956 7.88258 39.3419 8.00189 39.5994 8.09659C39.857 8.1875 40.0938 8.26136 40.3097 8.31818L41.4915 8.63636C41.7945 8.71591 42.1316 8.82576 42.5028 8.96591C42.8778 9.10606 43.2358 9.29735 43.5767 9.53977C43.9214 9.77841 44.2055 10.0852 44.429 10.4602C44.6525 10.8352 44.7642 11.2955 44.7642 11.8409C44.7642 12.4697 44.5994 13.0379 44.2699 13.5455C43.9441 14.053 43.4669 14.4564 42.8381 14.7557C42.2131 15.0549 41.4536 15.2045 40.5597 15.2045C39.7263 15.2045 39.0047 15.0701 38.3949 14.8011C37.7888 14.5322 37.3116 14.1572 36.9631 13.6761C36.6184 13.1951 36.4233 12.6364 36.3778 12H37.8324C37.8703 12.4394 38.018 12.803 38.2756 13.0909C38.5369 13.375 38.8665 13.5871 39.2642 13.7273C39.6657 13.8636 40.0975 13.9318 40.5597 13.9318C41.0975 13.9318 41.5805 13.8447 42.0085 13.6705C42.4366 13.4924 42.7756 13.2462 43.0256 12.9318C43.2756 12.6136 43.4006 12.2424 43.4006 11.8182C43.4006 11.4318 43.2926 11.1174 43.0767 10.875C42.8608 10.6326 42.5767 10.4356 42.2244 10.2841C41.8722 10.1326 41.4915 10 41.0824 9.88636L39.6506 9.47727C38.7415 9.21591 38.0218 8.8428 37.4915 8.35795C36.9612 7.87311 36.696 7.23864 36.696 6.45455C36.696 5.80303 36.8722 5.23485 37.2244 4.75C37.5805 4.26136 38.0578 3.88258 38.6562 3.61364C39.2585 3.34091 39.9309 3.20455 40.6733 3.20455C41.4233 3.20455 42.09 3.33901 42.6733 3.60795C43.2566 3.87311 43.7188 4.23674 44.0597 4.69886C44.4044 5.16098 44.5862 5.68561 44.6051 6.27273H43.2415ZM48.2401 9.75V15H46.8991V3.36364H48.2401V7.63636H48.3537C48.5582 7.18561 48.8651 6.82765 49.2741 6.5625C49.687 6.29356 50.2363 6.15909 50.9219 6.15909C51.5166 6.15909 52.0374 6.27841 52.4844 6.51705C52.9313 6.75189 53.2779 7.11364 53.5241 7.60227C53.7741 8.08712 53.8991 8.70455 53.8991 9.45455V15H52.5582V9.54545C52.5582 8.85227 52.3783 8.31629 52.0185 7.9375C51.6624 7.55492 51.1681 7.36364 50.5355 7.36364C50.0961 7.36364 49.7022 7.45644 49.3537 7.64205C49.009 7.82765 48.7363 8.09848 48.5355 8.45455C48.3385 8.81061 48.2401 9.24242 48.2401 9.75ZM59.8977 15.1818C59.1098 15.1818 58.4186 14.9943 57.8239 14.6193C57.233 14.2443 56.7708 13.7197 56.4375 13.0455C56.108 12.3712 55.9432 11.5833 55.9432 10.6818C55.9432 9.77273 56.108 8.97917 56.4375 8.30114C56.7708 7.62311 57.233 7.09659 57.8239 6.72159C58.4186 6.34659 59.1098 6.15909 59.8977 6.15909C60.6856 6.15909 61.375 6.34659 61.9659 6.72159C62.5606 7.09659 63.0227 7.62311 63.3523 8.30114C63.6856 8.97917 63.8523 9.77273 63.8523 10.6818C63.8523 11.5833 63.6856 12.3712 63.3523 13.0455C63.0227 13.7197 62.5606 14.2443 61.9659 14.6193C61.375 14.9943 60.6856 15.1818 59.8977 15.1818ZM59.8977 13.9773C60.4962 13.9773 60.9886 13.8239 61.375 13.517C61.7614 13.2102 62.0473 12.8068 62.233 12.3068C62.4186 11.8068 62.5114 11.2652 62.5114 10.6818C62.5114 10.0985 62.4186 9.55492 62.233 9.05114C62.0473 8.54735 61.7614 8.14015 61.375 7.82955C60.9886 7.51894 60.4962 7.36364 59.8977 7.36364C59.2992 7.36364 58.8068 7.51894 58.4205 7.82955C58.0341 8.14015 57.7481 8.54735 57.5625 9.05114C57.3769 9.55492 57.2841 10.0985 57.2841 10.6818C57.2841 11.2652 57.3769 11.8068 57.5625 12.3068C57.7481 12.8068 58.0341 13.2102 58.4205 13.517C58.8068 13.8239 59.2992 13.9773 59.8977 13.9773ZM67.5795 15L64.9205 6.27273H66.3295L68.2159 12.9545H68.3068L70.1705 6.27273H71.6023L73.4432 12.9318H73.5341L75.4205 6.27273H76.8295L74.1705 15H72.8523L70.9432 8.29545H70.8068L68.8977 15H67.5795Z" fill="black"/>
<path d="M2.02194 25.4343C2.27975 24.1453 4.6922 21.6146 6.07509 21.6146C7.33378 21.6146 10.6865 20.1108 11.1044 21.4024C11.5023 22.6324 12.8634 24.0084 14.0328 22.5271C14.6511 21.744 15.1767 20.4697 16.1125 20.0018C16.6 19.7581 16.6961 21.9361 16.9613 22.3149C17.9777 23.7669 20.2678 23.8996 21.545 22.7605C24.0192 20.5538 24.9551 22.5285 26.7865 24.543C28.0481 25.9308 28.6251 23.6088 29.7786 23.1425C31.9477 22.2656 35.7447 23.8881 37.1634 21.9966" stroke="#FFA600" stroke-linecap="round"/>
</svg>
